<?xml version="1.0" encoding="UTF-8"?>
<svg xmlns="http://www.w3.org/2000/svg" width="1048" height="4" viewBox="0 0 1048 4" fill="none">
  <g clip-path="url(#clip0_1179_443)">
    <rect width="1047.1" height="3.7" fill="#F5F4F4"></rect>
    <path d="M1047.1 0C557 0 8.9 0 0 0V1.6C0 1.6 0.6 0.0999999 2.7 1.3C3.9 2 6.1 4.1 8.3 3.5C9.2 3.3 9.8 1.6 9.8 1.6C9.8 1.6 10.4 0.0999999 12.5 1.3C13.8 2 16 4.1 18.2 3.5C19.1 3.3 19.7 1.6 19.7 1.6C19.7 1.6 20.3 0.0999999 22.4 1.3C23.6 2 25.9 4.1 28 3.5C28.9 3.3 29.5 1.6 29.5 1.6C29.5 1.6 30.1 0.0999999 32.2 1.3C33.4 2 35.7 4.1 37.8 3.5C38.7 3.3 39.3 1.6 39.3 1.6C39.3 1.6 39.9 0.0999999 42 1.3C43.2 2 45.5 4.1 47.6 3.5C48.5 3.3 49.1 1.6 49.1 1.6C49.1 1.6 49.7 0.0999999 51.8 1.3C53 2 55.3 4.1 57.4 3.5C58.3 3.3 58.9 1.6 58.9 1.6C58.9 1.6 59.5 0.0999999 61.6 1.3C63 2 65.3 4.1 67.4 3.5C68.3 3.3 69 1.6 69 1.6C69 1.6 69.6 0.0999999 71.7 1.3C72.9 2 75.2 4.1 77.3 3.5C78.2 3.3 78.8 1.6 78.8 1.6C78.8 1.6 79.4 0.0999999 81.5 1.3C82.7 2 85 4.1 87.1 3.5C88 3.3 88.6 1.6 88.6 1.6C88.6 1.6 89.2 0.0999999 91.3 1.3C92.6 2 94.8 4.1 97 3.5C97.9 3.3 98.5 1.6 98.5 1.6C98.5 1.6 99.1 0.0999999 101.2 1.3C102.4 2 104.7 4.1 106.8 3.5C107.7 3.3 108.3 1.6 108.3 1.6C108.3 1.6 108.9 0.0999999 111 1.3C112.2 2 114.5 4.1 116.6 3.5C117.5 3.3 118.1 1.6 118.1 1.6C118.1 1.6 118.7 0.0999999 120.8 1.3C122 2 124.3 4.1 126.4 3.5C127.3 3.3 127.9 1.6 127.9 1.6C127.9 1.6 128.5 0.0999999 130.6 1.3C131.8 2 134.1 4.1 136.2 3.5C137.1 3.3 137.7 1.6 137.7 1.6C137.7 1.6 138.3 0.0999999 140.4 1.3C141.6 2 143.9 4.1 146 3.5C146.9 3.3 147.5 1.6 147.5 1.6C147.5 1.6 148.1 0.0999999 150.2 1.3C151.4 2 153.7 4.1 155.8 3.5C156.7 3.3 157.3 1.6 157.3 1.6C157.3 1.6 157.9 0.0999999 160 1.3C161.2 2 163.5 4.1 165.6 3.5C166.5 3.3 167.1 1.6 167.1 1.6C167.1 1.6 167.7 0.0999999 169.8 1.3C171 2 173.3 4.1 175.4 3.5C176.3 3.3 176.9 1.6 176.9 1.6C176.9 1.6 177.5 0.0999999 179.6 1.3C180.8 2 183.1 4.1 185.2 3.5C186.1 3.3 186.7 1.6 186.7 1.6C186.7 1.6 187.3 0.0999999 189.4 1.3C190.6 2 192.9 4.1 195 3.5C195.9 3.3 196.5 1.6 196.5 1.6C196.5 1.6 197.1 0.0999999 199.2 1.3C200.4 2 202.7 4.1 204.8 3.5C205.7 3.3 206.3 1.6 206.3 1.6C206.3 1.6 206.9 0.0999999 209 1.3C210.2 2 212.5 4.1 214.6 3.5C215.5 3.3 216.1 1.6 216.1 1.6C216.1 1.6 216.7 0.0999999 218.8 1.3C220 2 222.3 4.1 224.4 3.5C225.3 3.3 225.9 1.6 225.9 1.6C225.9 1.6 226.5 0.0999999 228.6 1.3C229.8 2 232.1 4.1 234.2 3.5C235.1 3.3 235.7 1.6 235.7 1.6C235.7 1.6 236.3 0.0999999 238.4 1.3C239.6 2 241.9 4.1 244 3.5C244.9 3.3 245.5 1.6 245.5 1.6C245.5 1.6 246.1 0.0999999 248.2 1.3C249.4 2 251.7 4.1 253.8 3.5C254.7 3.3 255.3 1.6 255.3 1.6C255.3 1.6 255.9 0.0999999 258 1.3C259.2 2 261.5 4.1 263.6 3.5C264.5 3.3 265.1 1.6 265.1 1.6C265.1 1.6 265.7 0.0999999 267.8 1.3C269 2 271.3 4.1 273.4 3.5C274.3 3.3 274.9 1.6 274.9 1.6C274.9 1.6 275.5 0.0999999 277.6 1.3C278.8 2 281.1 4.1 283.2 3.5C284.1 3.3 284.7 1.6 284.7 1.6C284.7 1.6 285.3 0.0999999 287.4 1.3C288.6 2 290.9 4.1 293 3.5C293.9 3.3 294.5 1.6 294.5 1.6C294.5 1.6 295.1 0.0999999 297.2 1.3C298.4 2 300.7 4.1 302.8 3.5C303.7 3.3 304.3 1.6 304.3 1.6C304.3 1.6 304.9 0.0999999 307 1.3C308.2 2 310.5 4.1 312.6 3.5C313.5 3.3 314.1 1.6 314.1 1.6C314.1 1.6 314.7 0.0999999 316.8 1.3C318 2 320.3 4.1 322.4 3.5C323.3 3.3 323.9 1.6 323.9 1.6C323.9 1.6 324.5 0.0999999 326.6 1.3C327.8 2 330.1 4.1 332.2 3.5C333.1 3.3 333.7 1.6 333.7 1.6C333.7 1.6 334.3 0.0999999 336.4 1.3C337.6 2 339.9 4.1 342 3.5C342.9 3.3 343.5 1.6 343.5 1.6C343.5 1.6 344.1 0.0999999 346.2 1.3C347.4 2 349.7 4.1 351.8 3.5C352.7 3.3 353.3 1.6 353.3 1.6C353.3 1.6 353.9 0.0999999 356 1.3C357.2 2 359.5 4.1 361.6 3.5C362.5 3.3 363.1 1.6 363.1 1.6C363.1 1.6 363.7 0.0999999 365.8 1.3C367 2 369.3 4.1 371.4 3.5C372.3 3.3 372.9 1.6 372.9 1.6C372.9 1.6 373.5 0.0999999 375.6 1.3C376.8 2 379.1 4.1 381.2 3.5C382.1 3.3 382.7 1.6 382.7 1.6C382.7 1.6 383.3 0.0999999 385.4 1.3C386.6 2 388.9 4.1 391 3.5C391.9 3.3 392.5 1.6 392.5 1.6C392.5 1.6 393.1 0.0999999 395.2 1.3C396.4 2 398.7 4.1 400.8 3.5C401.7 3.3 402.3 1.6 402.3 1.6C402.3 1.6 402.9 0.0999999 405 1.3C406.2 2 408.5 4.1 410.6 3.5C411.5 3.3 412.1 1.6 412.1 1.6C412.1 1.6 412.7 0.0999999 414.8 1.3C416 2 418.3 4.1 420.4 3.5C421.3 3.3 421.9 1.6 421.9 1.6C421.9 1.6 422.5 0.0999999 424.6 1.3C425.8 2 428.1 4.1 430.2 3.5C431.1 3.3 431.7 1.6 431.7 1.6C431.7 1.6 432.3 0.0999999 434.4 1.3C435.6 2 437.9 4.1 440 3.5C440.9 3.3 441.5 1.6 441.5 1.6C441.5 1.6 442.1 0.0999999 444.2 1.3C445.4 2 447.7 4.1 449.8 3.5C450.7 3.3 451.3 1.6 451.3 1.6C451.3 1.6 451.9 0.0999999 454 1.3C455.2 2 457.5 4.1 459.6 3.5C460.5 3.3 461.1 1.6 461.1 1.6C461.1 1.6 461.7 0.0999999 463.8 1.3C465 2 467.3 4.1 469.4 3.5C470.3 3.3 470.9 1.6 470.9 1.6C470.9 1.6 471.5 0.0999999 473.6 1.3C474.8 2 477.1 4.1 479.2 3.5C480.1 3.3 480.7 1.6 480.7 1.6C480.7 1.6 481.3 0.0999999 483.4 1.3C484.6 2 486.9 4.1 489 3.5C489.9 3.3 490.5 1.6 490.5 1.6C490.5 1.6 491.1 0.0999999 493.2 1.3C494.4 2 496.7 4.1 498.8 3.5C499.7 3.3 500.3 1.6 500.3 1.6C500.3 1.6 500.9 0.0999999 503 1.3C504.2 2 506.5 4.1 508.6 3.5C509.5 3.3 510.1 1.6 510.1 1.6C510.1 1.6 510.7 0.0999999 512.8 1.3C514 2 516.3 4.1 518.4 3.5C519.3 3.3 519.9 1.6 519.9 1.6C519.9 1.6 520.5 0.0999999 522.6 1.3C523.8 2 526.1 4.1 528.2 3.5C529.1 3.3 529.7 1.6 529.7 1.6C529.7 1.6 530.3 0.0999999 532.4 1.3C533.6 2 535.9 4.1 538 3.5C538.9 3.3 539.5 1.6 539.5 1.6C539.5 1.6 540.1 0.0999999 542.2 1.3C543.4 2 545.7 4.1 547.8 3.5C548.7 3.3 549.3 1.6 549.3 1.6C549.3 1.6 549.9 0.0999999 552 1.3C553.2 2 555.5 4.1 557.6 3.5C558.5 3.3 559.1 1.6 559.1 1.6C559.1 1.6 559.7 0.0999999 561.8 1.3C563 2 565.3 4.1 567.4 3.5C568.3 3.3 568.9 1.6 568.9 1.6C568.9 1.6 569.5 0.0999999 571.6 1.3C572.8 2 575.1 4.1 577.2 3.5C578.1 3.3 578.7 1.6 578.7 1.6C578.7 1.6 579.3 0.0999999 581.4 1.3C582.6 2 584.9 4.1 587 3.5C587.9 3.3 588.5 1.6 588.5 1.6C588.5 1.6 589.1 0.0999999 591.2 1.3C592.4 2 594.7 4.1 596.8 3.5C597.7 3.3 598.3 1.6 598.3 1.6C598.3 1.6 598.9 0.0999999 601 1.3C602.2 2 604.5 4.1 606.6 3.5C607.5 3.3 608.1 1.6 608.1 1.6C608.1 1.6 608.7 0.0999999 610.8 1.3C612 2 614.3 4.1 616.4 3.5C617.3 3.3 617.9 1.6 617.9 1.6C617.9 1.6 618.5 0.0999999 620.6 1.3C621.8 2 624.1 4.1 626.2 3.5C627.1 3.3 627.7 1.6 627.7 1.6C627.7 1.6 628.3 0.0999999 630.4 1.3C631.6 2 633.9 4.1 636 3.5C636.9 3.3 637.5 1.6 637.5 1.6C637.5 1.6 638.1 0.0999999 640.2 1.3C641.4 2 643.7 4.1 645.8 3.5C646.7 3.3 647.3 1.6 647.3 1.6C647.3 1.6 647.9 0.0999999 650 1.3C651.2 2 653.5 4.1 655.6 3.5C656.5 3.3 657.1 1.6 657.1 1.6C657.1 1.6 657.7 0.0999999 659.8 1.3C661 2 663.3 4.1 665.4 3.5C666.3 3.3 666.9 1.6 666.9 1.6C666.9 1.6 667.5 0.0999999 669.6 1.3C670.8 2 673.1 4.1 675.2 3.5C676.1 3.3 676.7 1.6 676.7 1.6C676.7 1.6 677.3 0.0999999 679.4 1.3C680.6 2 682.9 4.1 685 3.5C685.9 3.3 686.5 1.6 686.5 1.6C686.5 1.6 687.1 0.0999999 689.2 1.3C690.4 2 692.7 4.1 694.8 3.5C695.7 3.3 696.3 1.6 696.3 1.6C696.3 1.6 696.9 0.0999999 699 1.3C700.2 2 702.5 4.1 704.6 3.5C705.5 3.3 706.1 1.6 706.1 1.6C706.1 1.6 706.7 0.0999999 708.8 1.3C710 2 712.3 4.1 714.4 3.5C715.3 3.3 715.9 1.6 715.9 1.6C715.9 1.6 716.5 0.0999999 718.6 1.3C719.8 2 722.1 4.1 724.2 3.5C725.1 3.3 725.7 1.6 725.7 1.6C725.7 1.6 726.3 0.0999999 728.4 1.3C729.6 2 731.9 4.1 734 3.5C734.9 3.3 735.5 1.6 735.5 1.6C735.5 1.6 736.1 0.0999999 738.2 1.3C739.4 2 741.7 4.1 743.8 3.5C744.7 3.3 745.3 1.6 745.3 1.6C745.3 1.6 745.9 0.0999999 748 1.3C749.2 2 751.5 4.1 753.6 3.5C754.5 3.3 755.1 1.6 755.1 1.6C755.1 1.6 755.7 0.0999999 757.8 1.3C759 2 761.3 4.1 763.4 3.5C764.3 3.3 764.9 1.6 764.9 1.6C764.9 1.6 765.5 0.0999999 767.6 1.3C768.8 2 771.1 4.1 773.2 3.5C774.1 3.3 774.7 1.6 774.7 1.6C774.7 1.6 775.3 0.0999999 777.4 1.3C778.6 2 780.9 4.1 783 3.5C783.9 3.3 784.5 1.6 784.5 1.6C784.5 1.6 785.1 0.0999999 787.2 1.3C788.4 2 790.7 4.1 792.8 3.5C793.7 3.3 794.3 1.6 794.3 1.6C794.3 1.6 794.9 0.0999999 797 1.3C798.2 2 800.5 4.1 802.6 3.5C803.5 3.3 804.1 1.6 804.1 1.6C804.1 1.6 804.7 0.0999999 806.8 1.3C808 2 810.3 4.1 812.4 3.5C813.3 3.3 813.9 1.6 813.9 1.6C813.9 1.6 814.5 0.0999999 816.6 1.3C817.8 2 820.1 4.1 822.2 3.5C823.1 3.3 823.7 1.6 823.7 1.6C823.7 1.6 824.3 0.0999999 826.4 1.3C827.6 2 829.9 4.1 832 3.5C832.9 3.3 833.5 1.6 833.5 1.6C833.5 1.6 834.1 0.0999999 836.2 1.3C837.4 2 839.7 4.1 841.8 3.5C842.7 3.3 843.3 1.6 843.3 1.6C843.3 1.6 843.9 0.0999999 846 1.3C847.2 2 849.5 4.1 851.6 3.5C852.5 3.3 853.1 1.6 853.1 1.6C853.1 1.6 853.7 0.0999999 855.8 1.3C857 2 859.3 4.1 861.4 3.5C862.3 3.3 862.9 1.6 862.9 1.6C862.9 1.6 863.5 0.0999999 865.6 1.3C866.8 2 869.1 4.1 871.2 3.5C872.1 3.3 872.7 1.6 872.7 1.6C872.7 1.6 873.3 0.0999999 875.4 1.3C876.6 2 878.9 4.1 881 3.5C881.9 3.3 882.5 1.6 882.5 1.6C882.5 1.6 883.1 0.0999999 885.2 1.3C886.4 2 888.7 4.1 890.8 3.5C891.7 3.3 892.3 1.6 892.3 1.6C892.3 1.6 892.9 0.0999999 895 1.3C896.2 2 898.5 4.1 900.6 3.5C901.5 3.3 902.1 1.6 902.1 1.6C902.1 1.6 902.7 0.0999999 904.8 1.3C906 2 908.3 4.1 910.4 3.5C911.3 3.3 911.9 1.6 911.9 1.6C911.9 1.6 912.5 0.0999999 914.6 1.3C915.8 2 918.1 4.1 920.2 3.5C921.1 3.3 921.7 1.6 921.7 1.6C921.7 1.6 922.3 0.0999999 924.4 1.3C925.6 2 927.9 4.1 930 3.5C930.9 3.3 931.5 1.6 931.5 1.6C931.5 1.6 932.1 0.0999999 934.2 1.3C935.4 2 937.7 4.1 939.8 3.5C940.7 3.3 941.3 1.6 941.3 1.6C941.3 1.6 941.9 0.0999999 944 1.3C945.2 2 947.5 4.1 949.6 3.5C950.5 3.3 951.1 1.6 951.1 1.6C951.1 1.6 951.7 0.0999999 953.8 1.3C955 2 957.3 4.1 959.4 3.5C960.3 3.3 960.9 1.6 960.9 1.6C960.9 1.6 961.5 0.0999999 963.6 1.3C964.8 2 967.1 4.1 969.2 3.5C970.1 3.3 970.7 1.6 970.7 1.6C970.7 1.6 971.3 0.0999999 973.4 1.3C974.6 2 976.9 4.1 979 3.5C979.9 3.3 980.5 1.6 980.5 1.6C980.5 1.6 981.1 0.0999999 983.2 1.3C984.4 2 986.7 4.1 988.8 3.5C989.7 3.3 990.3 1.6 990.3 1.6C990.3 1.6 990.9 0.0999999 993 1.3C994.2 2 996.5 4.1 998.6 3.5C999.5 3.3 1000.1 1.6 1000.1 1.6C1000.1 1.6 1000.7 0.0999999 1002.8 1.3C1004 2 1006.3 4.1 1008.4 3.5C1009.3 3.3 1009.9 1.6 1009.9 1.6C1009.9 1.6 1010.5 0.0999999 1012.6 1.3C1013.8 2 1016.1 4.1 1018.2 3.5C1019.1 3.3 1019.7 1.6 1019.7 1.6C1019.7 1.6 1020.3 0.0999999 1022.4 1.3C1023.6 2 1025.9 4.1 1028 3.5C1028.9 3.3 1029.5 1.6 1029.5 1.6C1029.5 1.6 1030.1 0.0999999 1032.2 1.3C1033.4 2 1035.7 4.1 1037.8 3.5C1038.7 3.3 1039.3 1.6 1039.3 1.6C1039.3 1.6 1039.9 0.1 1041.9 1.2V0H1047.1ZM2.7 1.4C2.8 1.4 2.8 1.5 2.8 1.5C2.8 1.4 2.8 1.4 2.7 1.4Z" fill="#F2E8CF"></path>
  </g>
  <defs>
    <clipPath id="clip0_1179_443">
      <rect width="1047.1" height="3.7" fill="white"></rect>
    </clipPath>
  </defs>
</svg>
