<?xml version="1.0" encoding="UTF-8"?>
<svg xmlns="http://www.w3.org/2000/svg" width="55" height="55" viewBox="0 0 55 55" fill="none">
  <g clip-path="url(#clip0_1155_361)">
    <path fill-rule="evenodd" clip-rule="evenodd" d="M55 51.9444C55 52.7548 54.6781 53.532 54.1051 54.1051C53.532 54.6781 52.7548 55 51.9444 55H3.05556C2.24517 55 1.46798 54.6781 0.894952 54.1051C0.321924 53.532 0 52.7548 0 51.9444V3.05556C0 2.24517 0.321924 1.46798 0.894952 0.894952C1.46798 0.321924 2.24517 0 3.05556 0C3.86594 0 4.64313 0.321924 5.21616 0.894952C5.78919 1.46798 6.11111 2.24517 6.11111 3.05556V48.8889H51.9444C52.7548 48.8889 53.532 49.2108 54.1051 49.7838C54.6781 50.3569 55 51.1341 55 51.9444Z" fill="#11392E"></path>
    <path fill-rule="evenodd" clip-rule="evenodd" d="M54.4805 4.736L51.3028 9.50266C51.7306 10.3429 51.9536 11.2749 51.9444 12.2221C51.9395 13.776 51.3427 15.2697 50.2756 16.3992C49.2085 17.5288 47.7511 18.2094 46.2 18.3027L41.7694 27.1638C42.2929 27.9582 42.6237 28.8638 42.7354 29.8086C42.8471 30.7534 42.7367 31.7113 42.413 32.6059C42.0893 33.5005 41.5611 34.3071 40.8706 34.9616C40.1801 35.6161 39.3464 36.1003 38.4358 36.3757C37.5251 36.6512 36.5628 36.7102 35.6253 36.5481C34.6878 36.3859 33.8012 36.0072 33.0359 35.442C32.2706 34.8768 31.6479 34.1407 31.2173 33.2923C30.7867 32.444 30.5601 31.5068 30.5555 30.5554V30.4638L24.3528 26.736C23.8119 27.0416 23.2222 27.2616 22.6111 27.3777L18.1805 40.6999C17.9756 41.3068 17.585 41.8339 17.0641 42.2068C16.5432 42.5796 15.9183 42.7793 15.2778 42.7777C14.9466 42.7693 14.6179 42.718 14.3 42.6249C13.5343 42.3598 12.9034 41.8044 12.5434 41.0785C12.1833 40.3527 12.1228 39.5144 12.375 38.7443L16.8055 25.4221C16.1513 24.6802 15.6869 23.7906 15.4522 22.8297C15.2176 21.8688 15.2197 20.8653 15.4584 19.9054C15.697 18.9454 16.1652 18.0578 16.8225 17.3187C17.4799 16.5796 18.3069 16.0111 19.2324 15.662C20.1579 15.313 21.1543 15.1938 22.1361 15.3147C23.1178 15.4357 24.0555 15.7931 24.8686 16.3564C25.6818 16.9196 26.346 17.6718 26.8044 18.5483C27.2627 19.4249 27.5014 20.3996 27.5 21.3888V21.4804L33.7028 25.2082C34.4972 24.7591 35.3894 24.5054 36.3 24.4749L40.7305 15.6138C40.1232 14.6906 39.7767 13.6204 39.7275 12.5165C39.6783 11.4125 39.9283 10.3158 40.4511 9.34226C40.9738 8.3687 41.75 7.55449 42.6974 6.98571C43.6448 6.41692 44.7283 6.1147 45.8333 6.111C45.9665 6.10593 46.0997 6.11618 46.2305 6.14155L49.4083 1.37489C49.8859 0.781983 50.5676 0.388726 51.32 0.272135C52.0723 0.155545 52.8411 0.324018 53.4757 0.744561C54.1104 1.1651 54.5652 1.80742 54.751 2.54572C54.9369 3.28401 54.8404 4.06509 54.4805 4.736Z" fill="#BC4749"></path>
  </g>
  <defs>
    <clipPath id="clip0_1155_361">
      <rect width="55" height="55" fill="white"></rect>
    </clipPath>
  </defs>
</svg>
