<?xml version="1.0" encoding="UTF-8"?>
<svg xmlns="http://www.w3.org/2000/svg" width="81" height="33" viewBox="0 0 81 33" fill="none">
  <path d="M63.6677 29.4523C63.8289 29.6252 64.0445 29.7505 64.2948 29.8005L77.0298 32.2915C77.9978 32.4811 78.9255 32.2432 79.5776 31.6399C80.2289 31.0357 80.535 30.1262 80.4193 29.1467L78.8759 16.2066C78.7985 15.5671 78.2196 15.1119 77.5817 15.1893C76.9439 15.2651 76.4879 15.8448 76.5637 16.4826L78.1079 29.4219C78.1361 29.6536 78.095 29.84 77.9953 29.9329C77.8958 30.0241 77.7078 30.0514 77.4779 30.0063L64.7429 27.5152C64.112 27.3918 63.5004 27.803 63.377 28.4338C63.302 28.8143 63.4216 29.1883 63.6677 29.4523Z" fill="#BC4749"></path>
  <path d="M0.314737 27.7536C0.406057 27.8515 0.515206 27.9344 0.642291 27.999C1.21707 28.2893 1.91634 28.0575 2.20657 27.4844C3.09521 25.7228 4.0211 24.0267 4.95784 22.4447C5.28364 21.891 5.10667 21.1788 4.54893 20.8487C3.99602 20.5221 3.282 20.704 2.95376 21.2568C1.98988 22.8848 1.03935 24.6261 0.127654 26.4347C-0.0980548 26.8824 -0.00845635 27.407 0.314737 27.7536ZM6.27221 17.7627C6.32462 17.8189 6.38294 17.8712 6.44807 17.9171C6.97134 18.2905 7.69889 18.1692 8.07144 17.6451C9.2148 16.044 10.4065 14.5459 11.6154 13.1909C12.0424 12.7115 12.0192 11.9816 11.5212 11.5465C11.0419 11.1179 10.3064 11.1606 9.87771 11.6399C8.6131 13.0564 7.36802 14.6218 6.1769 16.293C5.8495 16.7511 5.90217 17.3659 6.27221 17.7627ZM14.0487 9.13863C14.4696 9.58995 15.1765 9.63605 15.6528 9.23171C17.1257 7.98233 18.6608 6.88835 20.2125 5.98113C20.7675 5.65616 20.9547 4.9435 20.6297 4.38843C20.3046 3.83665 19.5921 3.64618 19.037 3.97115C17.3685 4.94761 15.7227 6.11928 14.1462 7.45566C13.6555 7.87186 13.5953 8.60626 14.0115 9.09696C14.0234 9.10973 14.036 9.125 14.0487 9.13863ZM24.049 3.36354C24.3507 3.68713 24.823 3.82307 25.2689 3.67471C27.0251 3.08933 28.8488 2.69744 30.6883 2.50877C31.3283 2.44379 31.7931 1.87181 31.7289 1.23276C31.6656 0.591259 31.0912 0.127157 30.452 0.192988C28.443 0.397988 26.4517 0.82686 24.5337 1.4659C23.9244 1.66953 23.5933 2.32856 23.7969 2.93788C23.8505 3.10287 23.9386 3.24518 24.049 3.36354ZM35.5223 2.16268C35.7073 2.36109 35.9629 2.49689 36.2535 2.52681C38.0462 2.71299 39.8987 3.07425 41.7594 3.6014C42.3786 3.77707 43.0222 3.41729 43.1979 2.79814C43.3736 2.179 43.0129 1.53618 42.3946 1.36136C40.405 0.796763 38.4207 0.4103 36.4934 0.209537C35.8548 0.14275 35.2817 0.607144 35.2148 1.24739C35.1787 1.59626 35.3015 1.92595 35.5223 2.16268ZM46.6979 5.2625C46.8027 5.37491 46.9321 5.46922 47.0814 5.53375C48.7455 6.26657 50.4534 7.13685 52.1589 8.12239C52.7152 8.44416 53.4271 8.25317 53.7497 7.696C54.0723 7.14047 53.8854 6.42958 53.325 6.1052C51.546 5.07673 49.7612 4.16834 48.02 3.40234C47.431 3.14286 46.7445 3.41052 46.4859 3.99876C46.2909 4.43847 46.3906 4.93295 46.6979 5.2625ZM56.7946 11.0465C56.8486 11.1044 56.9101 11.1585 56.9776 11.207C58.4926 12.2699 60.0319 13.4375 61.5539 14.6769C62.0521 15.0832 62.7863 15.0083 63.1917 14.5092C63.5988 14.0118 63.5399 13.2898 63.024 12.8714C61.4596 11.5967 59.8753 10.3962 58.3145 9.30122C57.7886 8.9319 57.0617 9.05893 56.6923 9.58646C56.3724 10.0424 56.4269 10.6523 56.7946 11.0465ZM77.6696 31.235C78.069 31.6634 78.7355 31.7328 79.216 31.3739C79.732 30.9899 79.8382 30.2604 79.4542 29.7445C79.3991 29.67 78.0635 27.881 75.6947 25.1769C75.284 24.6954 74.5361 24.6446 74.0517 25.0676C73.5682 25.4915 73.5194 26.2279 73.9432 26.7115C76.2447 29.3399 77.574 31.1188 77.5866 31.1358C77.6125 31.1704 77.6402 31.2035 77.6696 31.235ZM65.8384 18.3871C65.8582 18.4084 65.8797 18.4297 65.9013 18.4494C67.2844 19.7244 68.6739 21.0779 70.0322 22.4747C70.4808 22.9353 71.2177 22.9453 71.6791 22.4976C72.1336 22.0546 72.1498 21.3311 71.7187 20.8687C71.7131 20.8627 71.7075 20.8567 71.702 20.8508C70.315 19.4249 68.8944 18.0415 67.4801 16.7383C67.0068 16.3024 66.2701 16.3319 65.8343 16.8052C65.419 17.2562 65.4278 17.9468 65.8384 18.3871Z" fill="#BC4749"></path>
</svg>
