<?xml version="1.0" encoding="UTF-8"?>
<svg xmlns="http://www.w3.org/2000/svg" width="55" height="55" viewBox="0 0 55 55" fill="none">
  <path fill-rule="evenodd" clip-rule="evenodd" d="M25.3996 40.9692H25.3995V48.8263H25.3996V40.9692ZM20.9098 40.9692H20.9097V48.8263H20.9098V40.9692ZM16.4201 40.9692H16.42V48.8263H16.4201V40.9692Z" fill="black"></path>
  <path fill-rule="evenodd" clip-rule="evenodd" d="M11.2161 34.7959H53.0523C53.6722 34.7959 54.1747 35.2985 54.1747 35.9184V53.8775C54.1747 54.4974 53.6722 55 53.0523 55H11.2161C10.5962 55 10.0936 54.4974 10.0936 53.8775V35.9184C10.0936 35.2985 10.5962 34.7959 11.2161 34.7959ZM17.5425 39.8469V49.9489H15.2976V39.8469H17.5425ZM22.0322 39.8469V49.9489H19.7873V39.8469H22.0322ZM26.522 39.8469V49.9489H24.2771V39.8469H26.522ZM31.0118 39.8469V49.9489H28.7668V39.8469H31.0118ZM35.5016 39.8469V49.9489H33.2566V39.8469H35.5016ZM39.9913 39.8469V49.9489H37.7464V39.8469H39.9913ZM44.4811 39.8469V49.9489H42.2361V39.8469H44.4811ZM48.9709 39.8469V49.9489H46.7259V39.8469H48.9709Z" fill="#11392E"></path>
  <path d="M4.17255 29.1837H11.2245C11.8444 29.1837 12.347 29.6863 12.347 30.3062V53.8776C12.347 54.4975 11.8444 55 11.2245 55H4.17255C3.55265 55 3.05011 54.4975 3.05011 53.8776V30.3062C3.05011 29.6863 3.55265 29.1837 4.17255 29.1837ZM10.6154 28.0613H4.78169C4.16178 28.0613 3.65925 27.5587 3.65925 26.9388V12.3921C3.65925 11.7722 4.16178 11.2696 4.78169 11.2696H10.6154C11.2353 11.2696 11.7378 11.7722 11.7378 12.3921V26.9388C11.7378 27.5587 11.2353 28.0613 10.6154 28.0613ZM8.61543 0.801593L11.658 8.61913L11.6614 8.61779C11.8863 9.1955 11.6002 9.84613 11.0225 10.071C10.8858 10.1243 10.74 10.1503 10.5933 10.1474H4.78169C4.16178 10.1474 3.65925 9.64483 3.65925 9.02492C3.65925 8.86322 3.69348 8.70952 3.75504 8.57062L6.48321 0.754451L7.53992 1.12275L6.48015 0.752838C6.68444 0.167554 7.32455 -0.141258 7.90983 0.0629912C8.26315 0.18632 8.5157 0.468543 8.61543 0.801593Z" fill="#11392E"></path>
  <path d="M13.1521 31.4286H2.26853C1.78967 31.4389 1.33946 31.1394 1.18007 30.6611L2.24492 30.3062L1.18386 30.6569L0.0962505 27.3941C0.0325887 27.2508 -0.000204798 27.0957 9.62293e-07 26.9388C9.62293e-07 26.3189 0.502574 25.8164 1.12248 25.8164H14.2544C14.3785 25.8141 14.505 25.8325 14.6295 25.874C15.2176 26.07 15.5354 26.7057 15.3394 27.2938L15.3347 27.2923L14.2463 30.5577C14.132 31.0565 13.6855 31.4286 13.1521 31.4286ZM12.3294 13.5148H3.08696C2.58986 13.5236 2.12945 13.1989 1.98767 12.698L3.06767 12.3923L1.98908 12.6949L1.05699 9.40167C1.01393 9.28075 0.991984 9.15332 0.9921 9.02495C0.9921 8.40505 1.49471 7.90251 2.11458 7.90251H13.2626C13.3726 7.90061 13.4824 7.91491 13.5883 7.94495C14.1847 8.11378 14.5314 8.73421 14.3626 9.33064L14.3605 9.33005L13.4274 12.6266C13.3195 13.134 12.8689 13.5147 12.3295 13.5147L12.3294 13.5148Z" fill="#11392E"></path>
  <path d="M16.9854 33.6735V30.8674C16.9854 30.2474 17.4879 29.7449 18.1078 29.7449H50.6671C51.287 29.7449 51.7896 30.2474 51.7896 30.8673V33.6735H16.9854H16.9854Z" fill="#BC4749"></path>
  <path d="M35.4036 13.5635C35.219 13.1623 34.8258 12.9159 34.3877 12.9124L34.3724 12.9125C33.9427 12.9179 33.5507 13.1722 33.3717 13.5635C31.9286 16.594 29.3849 17.7506 26.4773 19.0181C21.9309 21.0001 17.8825 22.765 19.9761 31.1392C20.1262 31.7398 20.7348 32.1049 21.3353 31.9548C21.9358 31.8046 22.3009 31.1961 22.1508 30.5956C22.0912 30.357 22.0388 30.1261 21.9919 29.901H46.7834C46.7365 30.1261 46.6841 30.357 46.6245 30.5956C46.4744 31.1961 46.8395 31.8046 47.44 31.9548C48.0405 32.1049 48.6491 31.7398 48.7993 31.1392C50.8928 22.7651 46.8445 21.0002 42.298 19.0181C39.4226 17.7646 36.827 16.5684 35.4036 13.5635Z" fill="#BC4749"></path>
</svg>
