<?xml version="1.0" encoding="UTF-8"?>
<svg xmlns="http://www.w3.org/2000/svg" width="40" height="55" viewBox="0 0 40 55" fill="none">
  <path d="M29.5539 38.3891L11.2916 33.4634C11.0482 33.4122 10.8653 33.1962 10.8653 32.9376V14.2745C10.8645 14.2255 10.8704 14.1753 10.8838 14.1256C10.9611 13.8391 11.256 13.6695 11.5425 13.7468L11.5423 13.7474L12.8249 14.0934C12.7819 10.281 14.2965 10.2557 16.509 10.2198C17.6129 10.2019 18.9309 10.1803 20.2624 9.44286C20.4786 9.30686 20.7677 9.34103 20.9455 9.53653L20.9449 9.53718C22.3428 11.0742 23.7019 11.8295 24.8389 12.4613C26.9498 13.6342 28.3795 14.4293 28.2651 18.258L29.8046 18.6733C30.0481 18.7244 30.2309 18.9404 30.2309 19.199V37.8621C30.2317 37.9123 30.2254 37.9625 30.2123 38.0111C30.135 38.2975 29.8401 38.4671 29.5537 38.3898L29.5539 38.3891ZM35.3108 45.6953H36.146C36.6533 45.6953 37.1333 45.8536 37.5255 46.1295C38.147 46.567 38.6444 47.0947 39.0247 47.6787V11.2304C39.0247 11.1439 39.0145 11.0596 38.9951 10.979C38.878 9.91914 38.6299 9.06241 37.9045 8.32639C37.3442 7.75784 36.5347 7.32761 35.3108 7.01312V45.6955V45.6953ZM34.2362 6.77808L6.00964 0.0340827L6.01071 0.0296418C5.4335 -0.108217 4.85378 0.247923 4.71585 0.825102C4.69454 0.914053 4.68468 1.00536 4.68649 1.09681V37.2039C4.68649 37.7281 5.06192 38.1647 5.55868 38.2594L33.5909 45.6952H34.2362V6.77797L34.2362 6.77808ZM36.1303 54.9998L1.06009 54.9997C-0.353365 54.9997 -0.353365 53.1388 1.06009 53.1388H1.463V47.556C1.463 47.0421 1.94414 46.6255 2.53758 46.6255H36.1462C36.4144 46.6255 36.6597 46.7106 36.848 46.8514C40.4023 49.205 38.9355 55.0378 36.1303 54.9998Z" fill="#11392E"></path>
  <path d="M3.61204 12.3047H2.53753C1.9441 12.3047 1.46295 12.7858 1.46295 13.3793V45.9444C1.77913 45.7859 2.14612 45.6952 2.53753 45.6952H29.4001L5.28335 39.298C4.3216 39.0429 3.61204 38.2156 3.61204 37.2039V12.3047Z" fill="#BC4749"></path>
  <path fill-rule="evenodd" clip-rule="evenodd" d="M16.5662 25.8873L26.602 28.7806C26.7507 28.8235 26.8713 28.9815 26.8713 29.1336V32.0251C26.8713 32.1772 26.7507 32.2657 26.602 32.2229L16.5662 29.3295C16.4175 29.2866 16.2969 29.1286 16.2969 28.9765V26.085C16.2969 25.9329 16.4175 25.8444 16.5662 25.8873ZM20.531 28.7703C20.6494 28.8044 20.7564 28.8843 20.834 28.9859C20.9115 29.0876 20.9594 29.2109 20.9594 29.3318C20.9594 29.4528 20.9115 29.5485 20.8339 29.6054C20.7564 29.6623 20.6494 29.6805 20.531 29.6464C20.4128 29.6123 20.3057 29.5324 20.2282 29.4308C20.1507 29.3292 20.1027 29.2058 20.1027 29.0849C20.1027 28.9639 20.1507 28.8682 20.2282 28.8113C20.3057 28.7544 20.4128 28.7362 20.531 28.7703ZM21.5841 28.0224C21.7024 28.0565 21.8094 28.1364 21.887 28.238C21.9645 28.3396 22.0124 28.463 22.0124 28.584C22.0124 28.7049 21.9645 28.8006 21.887 28.8575C21.8094 28.9145 21.7024 28.9326 21.5841 28.8985C21.4658 28.8644 21.3587 28.7845 21.2812 28.6829C21.2037 28.5812 21.1557 28.4579 21.1557 28.337C21.1557 28.216 21.2037 28.1203 21.2812 28.0634C21.3587 28.0065 21.4658 27.9883 21.5841 28.0224ZM22.6371 29.3775C22.7554 29.4116 22.8625 29.4915 22.94 29.5931C23.0175 29.6947 23.0655 29.8181 23.0655 29.939C23.0655 30.06 23.0175 30.1557 22.94 30.2126C22.8625 30.2695 22.7554 30.2877 22.6371 30.2536C22.5189 30.2195 22.4118 30.1396 22.3343 30.038C22.2568 29.9363 22.2088 29.813 22.2088 29.6921C22.2088 29.5711 22.2568 29.4754 22.3343 29.4185C22.4118 29.3616 22.5189 29.3434 22.6371 29.3775Z" fill="#BC4749"></path>
  <path d="M15.1824 22.597L16.5662 22.9959C16.7149 23.0388 16.8355 23.1969 16.8355 23.3489V29.1319C16.8355 29.2839 16.7149 29.3725 16.5662 29.3296L15.1824 28.9307C15.0337 28.8878 14.9131 28.7297 14.9131 28.5776V22.7947C14.9131 22.6427 15.0337 22.5541 15.1824 22.597Z" fill="#BC4749"></path>
  <path d="M16.4467 22.686L15.3019 22.356C15.1532 22.3131 15.0327 22.155 15.0327 22.0029V20.213C15.0327 20.0609 15.1532 19.9723 15.3019 20.0152L16.4467 20.3453C16.5954 20.3881 16.7159 20.5462 16.7159 20.6983V22.4883C16.7159 22.6403 16.5954 22.7289 16.4467 22.686Z" fill="#BC4749"></path>
  <path d="M16.9444 23.6557L14.8089 23.04C14.6886 23.0076 14.5775 22.8945 14.5443 22.7608L14.8042 22.7632L14.5454 22.7607L14.3318 21.8977C14.3206 21.8649 14.3149 21.8306 14.3146 21.796C14.3146 21.6439 14.4352 21.5553 14.5839 21.5982L17.16 22.3409C17.1864 22.3482 17.2118 22.3588 17.2355 22.3724C17.379 22.4538 17.4636 22.6295 17.4245 22.765L17.4234 22.7644L17.2096 23.5045C17.1875 23.6274 17.0772 23.6939 16.9444 23.6557Z" fill="#BC4749"></path>
  <path d="M16.783 20.9932L14.9693 20.4703C14.8452 20.4364 14.7324 20.3173 14.7033 20.1803L14.9656 20.1938L14.7037 20.1796L14.5211 19.3201C14.5134 19.2928 14.5094 19.2645 14.5093 19.2362C14.5093 19.0841 14.6299 18.9955 14.7786 19.0384L16.9658 19.669C16.9883 19.6752 17.0101 19.6839 17.0308 19.6948C17.1756 19.7709 17.2659 19.9449 17.2324 20.0833L17.2318 20.083L17.0488 20.8383C17.0283 20.9636 16.9171 21.0318 16.783 20.9932Z" fill="#BC4749"></path>
  <path d="M21.8524 20.6605C21.8509 20.641 21.8476 20.6216 21.8426 20.6027L21.8424 20.6017L21.8408 20.5961L21.8403 20.5943L21.8391 20.5905L21.8379 20.5863L21.8375 20.5849L21.8355 20.5791L21.8354 20.5786C21.7952 20.46 21.6947 20.3613 21.5815 20.329C21.47 20.2991 21.3726 20.3396 21.3329 20.4338L21.3328 20.4341L21.3308 20.4389L21.3304 20.44L21.3291 20.4434L21.328 20.4466L21.3275 20.4482L21.3259 20.4528L21.3257 20.4537C21.3207 20.47 21.3173 20.4874 21.3159 20.5058C21.2785 20.9331 20.6862 21.1508 20.0405 21.3881C19.7965 21.4778 19.5456 21.57 19.305 21.6809C18.1838 22.1976 17.3699 23.0512 18.8085 25.4748C18.8962 25.6224 19.0644 25.6974 19.184 25.6422C20.2329 25.9282 23.0496 26.6341 23.9843 27.0261C24.1039 27.1503 24.272 27.1723 24.3598 27.0752C25.7984 25.4812 24.9845 24.1582 23.8633 22.9951C23.6227 22.7455 23.3718 22.5086 23.1278 22.2782C22.4821 21.6686 21.8897 21.1093 21.8524 20.6605Z" fill="#BC4749"></path>
  <path d="M15.4589 17.922C15.4097 17.8198 15.3716 17.7127 15.345 17.6024C15.3182 17.4901 15.3037 17.3756 15.3037 17.2623C15.3037 17.056 15.3509 16.8758 15.4326 16.734C15.5189 16.5843 15.6443 16.4772 15.7943 16.4264L15.7941 16.4261C15.8488 16.4076 15.9162 16.432 15.965 16.4824C16.1103 16.6184 16.2317 16.7939 16.3159 16.9886C16.3977 17.1776 16.4449 17.3849 16.4449 17.5913C16.4449 17.7046 16.4304 17.8108 16.4035 17.9076C16.3759 18.0071 16.3347 18.0962 16.2824 18.1724L16.1503 18.0551L16.2828 18.1729C16.2539 18.215 16.2016 18.2278 16.1483 18.2117L15.5983 18.0532C15.5365 18.0354 15.4833 17.9827 15.4589 17.922Z" fill="#BC4749"></path>
  <path d="M15.7714 17.4614C15.7586 17.3635 15.7492 17.2651 15.7432 17.1665C15.7363 17.0563 15.7329 16.9458 15.7329 16.8354C15.7329 16.6291 15.7446 16.4387 15.7649 16.2791C15.7863 16.1107 15.8173 15.9764 15.8545 15.8931L15.8544 15.8928C15.8679 15.8625 15.8847 15.8722 15.8967 15.9121C15.9327 16.0166 15.9628 16.1657 15.9837 16.3422C16.0039 16.5134 16.0156 16.7106 16.0156 16.9168C16.0156 17.0302 16.012 17.1395 16.0054 17.2421C15.9985 17.3477 15.9883 17.4457 15.9753 17.5332L15.9426 17.4446L15.9755 17.5336C15.9683 17.5821 15.9553 17.6062 15.9422 17.6016L15.8059 17.5624C15.7906 17.558 15.7774 17.5169 15.7714 17.4614Z" fill="#BC4749"></path>
  <path d="M15.8743 17.8368H15.8743C16.1338 17.9117 16.3694 18.0879 16.5401 18.3117C16.7108 18.5355 16.8167 18.8071 16.8167 19.0724V19.9222C16.8167 20.0743 16.6961 20.1628 16.5475 20.1199L15.2012 19.7318C15.0525 19.6889 14.9319 19.5308 14.9319 19.3787V18.529C14.9319 18.2637 15.0378 18.0531 15.2085 17.9278C15.3792 17.8025 15.6149 17.7621 15.8743 17.8368Z" fill="#BC4749"></path>
  <path d="M18.5834 25.0684L24.5884 26.7996C24.6986 26.8314 24.7933 26.9264 24.835 27.0354L25.3622 28.1716L25.363 28.1714C25.4345 28.3253 25.3867 28.4789 25.2562 28.5144C25.2142 28.5258 25.1685 28.5236 25.1238 28.51L18.0413 26.4681C17.8926 26.4252 17.772 26.2672 17.772 26.1151C17.772 26.0587 17.7887 26.011 17.8171 25.9756L18.3442 25.1436L18.5798 25.3427L18.3437 25.1423C18.3932 25.0642 18.487 25.0394 18.5834 25.0684H18.5834Z" fill="#BC4749"></path>
  <path d="M21.45 20.5787C21.45 20.6547 21.5103 20.7338 21.5846 20.7552C21.659 20.7767 21.7192 20.7324 21.7192 20.6563L21.67 19.7514C21.67 19.7032 21.6318 19.653 21.5846 19.6394C21.5374 19.6258 21.4992 19.6539 21.4992 19.7021L21.45 20.5787V20.5787Z" fill="#BC4749"></path>
  <path d="M21.5294 18.8116C21.4942 18.7887 21.4539 18.7794 21.4188 18.7894C21.3429 18.8105 21.2771 18.8578 21.2328 18.9229C21.1884 18.9875 21.1639 19.0691 21.1639 19.1606C21.1639 19.3015 21.2197 19.4451 21.31 19.5635C21.4002 19.6818 21.525 19.7749 21.6627 19.8146C21.7574 19.8419 21.8487 19.8401 21.9271 19.8125C22.0059 19.7851 22.0717 19.7293 22.1114 19.6559C22.1358 19.6113 22.1257 19.5489 22.0905 19.4985C22.029 19.6281 21.8862 19.6901 21.7197 19.6421C21.4971 19.5779 21.3167 19.3413 21.3167 19.1137C21.3167 18.9565 21.4028 18.8446 21.5294 18.8116Z" fill="#BC4749"></path>
</svg>
