<?xml version="1.0" encoding="UTF-8"?>
<svg xmlns="http://www.w3.org/2000/svg" width="51" height="55" viewBox="0 0 51 55" fill="none">
  <path d="M15.8058 23.9128H10.34V29.379H15.8058V23.9128Z" fill="#11392E"></path>
  <path d="M39.7186 23.9128H34.2529V29.379H39.7186V23.9128Z" fill="#11392E"></path>
  <path d="M31.7478 23.9128H26.2821V29.379H31.7478V23.9128Z" fill="#11392E"></path>
  <path d="M15.8058 32.4531H10.34V37.9193H15.8058V32.4531Z" fill="#11392E"></path>
  <path d="M31.7478 32.4531H26.2821V37.9193H31.7478V32.4531Z" fill="#11392E"></path>
  <path d="M23.7769 32.4531H18.3112V37.9193H23.7769V32.4531Z" fill="#11392E"></path>
  <path d="M39.7186 40.9934H34.2529V46.4596H39.7186V40.9934Z" fill="#11392E"></path>
  <path d="M31.7478 40.9934H26.2821V46.4596H31.7478V40.9934Z" fill="#11392E"></path>
  <path d="M23.7769 40.9934H18.3112V46.4596H23.7769V40.9934Z" fill="#11392E"></path>
  <path d="M44.7173 5.91309H40.2726V10.1745C40.2726 11.7646 38.9626 13.0577 37.3525 13.0577H31.5491C29.939 13.0577 28.6291 11.7646 28.6291 10.1745V5.91309H21.4218V10.1344C21.4218 11.7466 20.0974 13.0577 18.4694 13.0577H12.7305C11.1025 13.0577 9.77809 11.7466 9.77809 10.1344V5.91309H5.3334C2.44311 5.91309 0.0916443 8.24328 0.0916443 11.1074V49.8057C0.0916443 52.6696 2.44311 54.9999 5.3334 54.9999H44.7173C47.612 54.9999 49.967 52.6697 49.967 49.8057V11.1074C49.967 8.24339 47.612 5.91309 44.7173 5.91309ZM46.2094 49.7048C46.2094 50.6243 45.5916 51.2419 44.672 51.2419H5.38658C4.46704 51.2419 3.84926 50.6243 3.84926 49.7048V19.1306H46.2094V49.7048Z" fill="#11392E"></path>
  <path d="M12.7322 11.0115H18.4676C18.9533 11.0115 19.3484 10.6191 19.3484 10.1367V2.2014C19.3484 0.987529 18.3526 0 17.1284 0H14.0713C12.8472 0 11.8511 0.987422 11.8511 2.2014V10.1367C11.8512 10.6191 12.2463 11.0115 12.7322 11.0115Z" fill="#BC4749"></path>
  <path d="M31.5491 11.0115H37.3525C37.8196 11.0115 38.1994 10.6341 38.1994 10.1708V2.16756C38.1994 0.97249 37.2189 0 36.0133 0H32.8883C31.6829 0 30.7024 0.97249 30.7024 2.16756V10.1708C30.7023 10.6341 31.0822 11.0115 31.5491 11.0115Z" fill="#BC4749"></path>
</svg>
