<?xml version="1.0" encoding="UTF-8"?>
<svg xmlns="http://www.w3.org/2000/svg" width="115" height="126" viewBox="0 0 115 126" fill="none">
  <path d="M99.924 81.2645C101.994 104.996 104.339 111.343 101.58 114.24C98.8202 117.138 90.9557 116.586 69.0177 107.342C47.2177 98.0975 11.4823 80.0228 13.2759 56.4291C15.2076 32.8354 54.8063 3.86076 75.5025 10.0696C96.1987 16.1405 97.8544 57.5329 99.924 81.2645Z" fill="#FFE9B2"></path>
  <path d="M57.686 114.36C52.6513 114.36 48.3247 113.809 44.706 112.708C41.166 111.685 38.0587 110.23 35.384 108.342C32.788 106.454 30.3887 104.212 28.186 101.616L31.49 98.194C34.794 101.891 38.2553 104.645 41.874 106.454C45.5713 108.185 49.1113 109.05 52.494 109.05C55.562 109.05 58.3153 108.421 60.754 107.162C63.2713 105.825 65.238 103.779 66.654 101.026C68.1487 98.194 68.896 94.5753 68.896 90.17C68.896 85.922 68.188 82.4607 66.772 79.786C65.4347 77.0327 63.6253 75.0267 61.344 73.768C59.0627 72.5093 56.5453 71.88 53.792 71.88C52.2187 71.88 50.842 71.9587 49.662 72.116C48.5607 72.2733 47.3807 72.5093 46.122 72.824C44.942 73.1387 43.3687 73.5713 41.402 74.122L38.57 69.638L70.784 39.43H49.662C44.942 39.43 41.284 40.5707 38.688 42.852C36.1707 45.0547 34.912 48.2407 34.912 52.41H31.372V43.56C31.372 41.9867 31.6473 40.492 32.198 39.076C32.7487 37.5813 33.732 36.4013 35.148 35.536C36.6427 34.592 38.7273 34.12 41.402 34.12H81.286V39.43L51.904 67.042C51.9827 66.9633 52.8873 66.8847 54.618 66.806C56.4273 66.6487 58.04 66.57 59.456 66.57C62.1307 66.57 64.9627 67.0027 67.952 67.868C71.02 68.6547 73.852 69.992 76.448 71.88C79.1227 73.6893 81.286 76.0887 82.938 79.078C84.59 82.0673 85.416 85.7647 85.416 90.17C85.416 95.126 84.3933 99.1773 82.348 102.324C80.3813 105.471 77.9033 107.949 74.914 109.758C71.9247 111.489 68.8567 112.669 65.71 113.298C62.642 114.006 59.9673 114.36 57.686 114.36Z" fill="#11392E"></path>
</svg>
