<?xml version="1.0" encoding="UTF-8"?>
<svg xmlns="http://www.w3.org/2000/svg" width="115" height="126" viewBox="0 0 115 126" fill="none">
  <path d="M94.6876 43.9765C107.086 71.6124 110.672 112.693 97.0778 120.311C83.4839 127.93 52.5617 102.086 33.142 82.8161C13.7222 63.3963 5.65555 50.5494 8.64321 35.7605C11.7802 20.9716 25.8222 4.24074 43.4494 3.19506C61.0765 2 82.2889 16.3407 94.6876 43.9765Z" fill="#FFE9B2"></path>
  <path d="M29.838 106V98.33C31.8047 96.3633 34.322 93.964 37.39 91.132C40.458 88.2213 43.644 85.0747 46.948 81.692C50.3307 78.2307 53.4773 74.6513 56.388 70.954C59.2987 67.178 61.6587 63.402 63.468 59.626C65.356 55.85 66.3 52.1527 66.3 48.534C66.3 44.4433 65.6707 41.1393 64.412 38.622C63.1533 36.026 61.5407 34.138 59.574 32.958C57.6073 31.6993 55.5227 31.07 53.32 31.07C48.364 31.07 44.1947 32.722 40.812 36.026C37.4293 39.33 35.148 44.5613 33.968 51.72H29.838C29.838 48.7307 29.956 45.702 30.192 42.634C30.428 39.4873 31.254 37.0093 32.67 35.2C34.794 32.604 37.9013 30.4013 41.992 28.592C46.1613 26.704 50.724 25.76 55.68 25.76C58.4333 25.76 61.344 26.0747 64.412 26.704C67.5587 27.2547 70.5087 28.3167 73.262 29.89C76.094 31.4633 78.3753 33.7447 80.106 36.734C81.9153 39.7233 82.82 43.6567 82.82 48.534C82.82 52.2313 81.9547 55.8893 80.224 59.508C78.4933 63.1267 76.212 66.6667 73.38 70.128C70.6267 73.5893 67.598 76.8933 64.294 80.04C60.99 83.1867 57.7253 86.0973 54.5 88.772C51.2747 91.368 48.364 93.6887 45.768 95.734C43.2507 97.7793 41.3627 99.4313 40.104 100.69H64.53C69.25 100.69 72.8687 99.5887 75.386 97.386C77.982 95.1047 79.28 91.8793 79.28 87.71H82.82V96.56C82.82 98.1333 82.5447 99.6673 81.994 101.162C81.4433 102.578 80.46 103.758 79.044 104.702C77.628 105.567 75.5433 106 72.79 106H29.838Z" fill="#11392E"></path>
</svg>
