<?xml version="1.0" encoding="UTF-8"?>
<svg xmlns="http://www.w3.org/2000/svg" width="55" height="55" viewBox="0 0 55 55" fill="none">
  <path d="M40.4823 46.6467H14.5176C13.3612 46.6467 12.4238 47.5842 12.4238 48.7406C12.4238 49.897 13.3612 50.8345 14.5176 50.8345H40.4823C41.6387 50.8345 42.5761 49.897 42.5761 48.7406C42.5761 47.5843 41.6387 46.6467 40.4823 46.6467Z" fill="#11392E"></path>
  <path d="M29.9266 15.1533H20.4398C19.2834 15.1533 18.3459 16.0908 18.3459 17.2472V23.8033C18.3459 24.9596 19.2834 25.8971 20.4398 25.8971H29.9266C31.083 25.8971 32.0204 24.9596 32.0204 23.8033V22.438L34.5834 23.9178C35.5016 24.4479 36.6542 23.7845 36.6542 22.7223V18.3282C36.6542 17.2678 35.5033 16.6014 34.5834 17.1327L32.0204 18.6124V17.2473C32.0204 16.0908 31.083 15.1533 29.9266 15.1533Z" fill="#BC4749"></path>
  <path d="M53.6041 31.3013H1.39595C0.62498 31.3013 0 31.9262 0 32.6972V36.4229C0 39.8922 2.81241 42.7046 6.28171 42.7046H48.7183C52.1876 42.7046 55 39.8922 55 36.4229V32.6972C55 31.9262 54.375 31.3013 53.6041 31.3013Z" fill="#11392E"></path>
  <path d="M48.7183 4.16553H6.28171C2.81241 4.16553 0 6.97794 0 10.4472V25.7174C0 26.4883 0.62498 27.1133 1.39595 27.1133H4.18784C4.95881 27.1133 5.58379 26.4883 5.58379 25.7174V11.8432C5.58379 10.6868 6.52126 9.74932 7.67766 9.74932H47.3223C48.4787 9.74932 49.4162 10.6868 49.4162 11.8432V25.7175C49.4162 26.4884 50.0412 27.1134 50.8122 27.1134H53.6041C54.375 27.1134 55 26.4884 55 25.7175V10.4472C55 6.97794 52.1876 4.16553 48.7183 4.16553Z" fill="#11392E"></path>
</svg>
