<?xml version="1.0" encoding="UTF-8"?>
<svg xmlns="http://www.w3.org/2000/svg" width="692" height="692" viewBox="0 0 692 692" fill="none">
  <path d="M169.25 300.5C241.737 300.5 300.5 241.737 300.5 169.25C300.5 96.7626 241.737 38 169.25 38C96.7626 38 38 96.7626 38 169.25C38 241.737 96.7626 300.5 169.25 300.5Z" stroke="#11392E" stroke-width="50"></path>
  <path d="M169.25 654.667C241.737 654.667 300.5 595.904 300.5 523.417C300.5 450.929 241.737 392.167 169.25 392.167C96.7626 392.167 38 450.929 38 523.417C38 595.904 96.7626 654.667 169.25 654.667Z" stroke="#11392E" stroke-width="50"></path>
  <path d="M523.417 654.667C595.904 654.667 654.667 595.904 654.667 523.417C654.667 450.929 595.904 392.167 523.417 392.167C450.929 392.167 392.167 450.929 392.167 523.417C392.167 595.904 450.929 654.667 523.417 654.667Z" stroke="#11392E" stroke-width="50"></path>
  <path d="M417.167 63L523.417 169.25M523.417 169.25L629.667 275.5M523.417 169.25L629.667 63M523.417 169.25L417.167 275.5" stroke="#BC4749" stroke-width="50" stroke-linecap="round"></path>
</svg>
